<?xml version="1.0" standalone="no"?>
<!DOCTYPE svg PUBLIC "-//W3C//DTD SVG 20010904//EN"
 "http://www.w3.org/TR/2001/REC-SVG-20010904/DTD/svg10.dtd">
<svg version="1.0" xmlns="http://www.w3.org/2000/svg"
 width="299.000000pt" height="168.000000pt" viewBox="0 0 299.000000 168.000000"
 preserveAspectRatio="xMidYMid meet">

<g transform="translate(0.000000,168.000000) scale(0.100000,-0.100000)"
fill="#000000" stroke="none">
<path d="M1387 1670 c-50 -9 -58 -20 -16 -21 19 -1 80 -4 137 -8 83 -5 101 -3
97 7 -3 8 -5 18 -5 23 0 10 -157 10 -213 -1z"/>
<path d="M1750 1665 c-6 -8 -9 -18 -6 -24 3 -5 0 -12 -6 -14 -7 -3 10 -6 37
-7 34 0 45 -3 35 -9 -9 -5 -60 -6 -120 -1 -123 11 -276 12 -307 4 -13 -4 -23
-12 -23 -19 0 -8 -18 -16 -41 -20 -46 -8 -47 -24 -2 -39 53 -18 47 -24 -39
-32 l-83 -8 140 -12 c77 -7 181 -15 230 -19 50 -4 117 -11 150 -15 52 -7 48
-8 -30 -4 -49 2 -182 11 -295 19 -275 20 -523 28 -487 16 15 -5 105 -12 199
-16 95 -4 175 -8 178 -10 3 -1 63 -6 135 -10 71 -3 132 -8 136 -11 4 -2 46 -6
95 -9 49 -3 114 -8 144 -11 30 -4 75 -8 100 -9 69 -3 313 -24 435 -36 l110
-12 94 52 c102 57 190 95 199 86 10 -10 -16 -306 -28 -321 -14 -16 -181 -105
-244 -129 -32 -12 -43 -21 -39 -32 5 -11 1 -14 -13 -10 -40 12 -73 16 -174 22
-58 3 -134 10 -170 15 -36 5 -96 10 -135 10 -38 0 -75 4 -81 8 -6 4 -10 49
-10 112 1 88 -2 105 -15 108 -13 2 -16 -12 -18 -100 -1 -57 -6 -107 -10 -111
-4 -4 -64 -3 -132 3 -68 6 -205 17 -304 25 -99 8 -236 22 -305 30 -69 8 -142
15 -163 15 -23 0 -36 4 -32 10 3 6 14 10 25 10 20 0 30 19 30 57 0 21 -3 24
-27 19 -16 -3 -62 -10 -103 -16 -90 -14 -189 -40 -196 -51 -3 -5 14 -9 38 -9
78 0 351 -50 384 -71 36 -22 155 -41 206 -33 22 4 134 -11 299 -41 145 -26
265 -48 266 -49 1 0 -3 -23 -8 -49 -12 -66 -89 -191 -120 -195 -24 -4 -24 -4
5 27 20 21 25 31 15 32 -9 0 -7 4 6 10 14 6 7 8 -25 4 -26 -3 -37 -2 -27 3 22
9 -275 67 -299 58 -10 -4 -13 -2 -8 6 5 7 -1 9 -19 6 -15 -3 -28 -2 -29 2 -5
12 -228 51 -250 45 -11 -4 -18 -3 -15 2 3 5 -16 10 -44 10 -27 0 -56 6 -64 13
-8 6 -19 9 -24 6 -5 -4 -42 1 -81 10 -38 8 -76 13 -83 11 -6 -3 -1 -6 11 -6
13 -1 38 -7 55 -15 58 -26 290 -76 602 -129 l70 -12 -60 -2 c-33 -2 -214 5
-402 15 -189 9 -343 14 -343 10 0 -5 7 -8 15 -8 8 0 15 -7 15 -15 0 -8 8 -18
18 -23 30 -16 155 -28 527 -51 94 -5 206 -17 250 -25 44 -8 105 -14 134 -15
97 0 201 -33 169 -52 -14 -9 -7 -12 45 -23 21 -5 27 -12 27 -32 0 -21 9 -29
53 -48 28 -13 68 -27 87 -31 19 -4 46 -14 60 -21 14 -8 66 -18 115 -23 l90 -8
-105 -2 c-160 -2 -1241 54 -1442 75 -94 10 -66 -11 30 -22 l87 -11 60 -57 c70
-67 117 -94 181 -103 66 -9 33 -23 -41 -17 l-60 4 50 -14 c65 -19 214 -40 222
-32 10 10 -2 16 -48 24 -43 8 -42 8 48 22 51 7 90 17 87 22 -3 4 6 8 19 8 14
0 30 7 37 15 7 8 30 18 51 21 22 4 39 11 39 17 0 11 139 2 222 -13 46 -9 182
-28 263 -36 54 -5 265 -34 292 -40 21 -4 40 -49 34 -85 -1 -10 7 -19 20 -22
19 -5 21 -3 15 23 -5 29 7 49 18 31 4 -5 0 -12 -6 -14 -8 -3 -6 -6 5 -6 9 -1
17 6 17 14 0 8 5 15 10 15 17 0 11 -21 -12 -40 -17 -14 -20 -21 -12 -30 8 -8
14 -9 18 -1 10 16 26 13 26 -4 0 -8 -9 -15 -20 -15 -11 0 -20 -5 -20 -11 0 -7
-12 -10 -29 -7 -21 3 -27 0 -25 -11 1 -9 5 -42 8 -74 l5 -57 -38 0 c-38 0
-259 29 -410 54 -47 8 -117 18 -156 21 -38 4 -110 15 -160 25 -420 84 -537
104 -583 96 -29 -5 -34 -4 -22 4 12 9 9 10 -13 5 -32 -7 -301 31 -330 47 -10
5 -21 8 -23 5 -12 -12 32 -26 144 -47 83 -15 122 -27 122 -36 0 -9 19 -14 63
-16 57 -3 62 -5 61 -25 0 -13 5 -23 13 -23 23 0 14 -20 -9 -21 l-23 0 23 -10
c13 -5 71 -9 130 -8 158 0 195 -1 206 -8 5 -4 48 -8 95 -10 223 -8 504 -30
656 -53 119 -17 188 -20 455 -19 185 0 307 4 295 9 -13 6 20 9 93 9 l112 1 0
174 0 174 -57 7 c-65 8 -55 25 15 25 23 0 42 5 42 10 0 6 -25 10 -55 10 -30 0
-55 5 -55 10 0 6 18 10 40 10 22 0 40 5 40 10 0 6 7 10 15 10 8 0 15 7 15 15
0 11 -10 13 -49 8 -28 -3 -56 -1 -67 5 -15 9 -5 11 49 12 61 0 67 2 67 21 0
20 -4 21 -64 17 -36 -2 -63 -1 -60 3 2 4 -4 16 -14 27 -13 16 -39 24 -115 34
l-97 12 5 31 c2 16 7 78 11 138 3 59 10 107 14 107 4 0 11 33 15 73 4 42 14
79 23 90 11 13 12 17 2 17 -7 0 -11 2 -9 5 3 2 29 -4 57 -14 32 -12 54 -15 58
-9 3 5 13 7 20 4 15 -6 108 37 132 61 9 9 10 18 3 32 -8 14 -7 22 4 31 22 18
18 36 -10 58 -21 17 -32 18 -65 11 -48 -11 -130 -50 -130 -62 0 -5 -10 -21
-22 -35 -16 -20 -19 -22 -14 -7 16 42 26 144 26 269 0 110 -2 127 -15 122 -8
-3 -25 -1 -37 4 -23 9 -23 9 -2 9 26 1 54 40 54 76 0 17 6 25 18 25 9 1 31 7
47 15 26 11 -45 13 -516 14 -467 1 -548 -1 -559 -14z m183 -62 c-7 -2 -21 -2
-30 0 -10 3 -4 5 12 5 17 0 24 -2 18 -5z m-516 -99 c-3 -3 -12 -4 -19 -1 -8 3
-5 6 6 6 11 1 17 -2 13 -5z m486 -71 c-13 -2 -33 -2 -45 0 -13 2 -3 4 22 4 25
0 35 -2 23 -4z m95 -10 c-10 -2 -28 -2 -40 0 -13 2 -5 4 17 4 22 1 32 -1 23
-4z m452 -43 c0 -5 -2 -10 -4 -10 -3 0 -8 5 -11 10 -3 6 -1 10 4 10 6 0 11 -4
11 -10z m-1763 -206 c-3 -3 -12 -4 -19 -1 -8 3 -5 6 6 6 11 1 17 -2 13 -5z
m80 -10 c-3 -3 -12 -4 -19 -1 -8 3 -5 6 6 6 11 1 17 -2 13 -5z m56 -11 c-7 -2
-19 -2 -25 0 -7 3 -2 5 12 5 14 0 19 -2 13 -5z m1961 -9 c9 -24 7 -27 -9 -10
-17 17 -19 26 -6 26 5 0 12 -7 15 -16z m-66 -39 c-3 -3 -9 2 -12 12 -6 14 -5
15 5 6 7 -7 10 -15 7 -18z m-1311 -51 c-3 -3 -12 -4 -19 -1 -8 3 -5 6 6 6 11
1 17 -2 13 -5z m1221 0 c18 -5 22 -12 18 -29 -3 -12 -8 -40 -12 -61 -3 -21 -8
-42 -10 -45 -2 -3 -36 -14 -76 -23 -40 -9 -84 -20 -98 -23 -14 -3 -29 -5 -35
-4 -5 2 -33 -3 -62 -10 -45 -10 -56 -10 -88 5 -20 10 -39 15 -42 12 -4 -3 0
-6 8 -7 8 0 6 -4 -6 -9 -17 -7 -14 -9 15 -10 29 -1 17 -7 -65 -34 -55 -19
-122 -36 -148 -39 -27 -4 -55 -11 -62 -17 -16 -13 -113 6 -137 27 -11 10 -18
11 -23 4 -6 -11 -57 -15 -67 -5 -4 4 65 140 88 172 1 2 11 -1 21 -6 10 -5 37
-12 61 -16 24 -3 47 -8 52 -11 4 -3 57 7 117 21 59 15 132 27 161 27 28 0 52
4 52 8 0 5 30 9 68 9 54 1 83 8 147 35 87 37 89 38 123 29z m-1171 -10 c-3 -3
-12 -4 -19 -1 -8 3 -5 6 6 6 11 1 17 -2 13 -5z m56 -11 c-7 -2 -19 -2 -25 0
-7 3 -2 5 12 5 14 0 19 -2 13 -5z m60 -10 c-7 -2 -19 -2 -25 0 -7 3 -2 5 12 5
14 0 19 -2 13 -5z m54 -9 c-3 -3 -12 -4 -19 -1 -8 3 -5 6 6 6 11 1 17 -2 13
-5z m66 -11 c-7 -2 -19 -2 -25 0 -7 3 -2 5 12 5 14 0 19 -2 13 -5z m44 -9 c-3
-3 -12 -4 -19 -1 -8 3 -5 6 6 6 11 1 17 -2 13 -5z m-360 -150 c-3 -3 -12 -4
-19 -1 -8 3 -5 6 6 6 11 1 17 -2 13 -5z m46 -11 c-7 -2 -19 -2 -25 0 -7 3 -2
5 12 5 14 0 19 -2 13 -5z m54 -9 c-3 -3 -12 -4 -19 -1 -8 3 -5 6 6 6 11 1 17
-2 13 -5z m56 -11 c-7 -2 -19 -2 -25 0 -7 3 -2 5 12 5 14 0 19 -2 13 -5z m964
-178 c-15 -16 -19 -13 -11 9 3 9 10 13 15 10 5 -3 3 -11 -4 -19z m4 -82 c-12
-20 -14 -14 -5 12 4 9 9 14 11 11 3 -2 0 -13 -6 -23z m-1 -83 l0 -30 -122 0
c-67 0 -119 2 -116 5 3 3 54 6 114 7 60 1 90 4 67 6 -57 4 -55 22 2 22 25 0
45 5 45 10 0 6 2 10 5 10 3 0 5 -13 5 -30z m-805 -41 c61 -6 126 -11 145 -11
28 0 31 -2 15 -8 -16 -7 -14 -9 15 -11 19 -1 26 -3 15 -5 -11 -2 -92 7 -180
20 -176 27 -180 32 -10 15z m273 -46 c-10 -2 -28 -2 -40 0 -13 2 -5 4 17 4 22
1 32 -1 23 -4z m59 -9 c-3 -3 -12 -4 -19 -1 -8 3 -5 6 6 6 11 1 17 -2 13 -5z
m66 -11 c-7 -2 -19 -2 -25 0 -7 3 -2 5 12 5 14 0 19 -2 13 -5z m144 -19 c-3
-3 -12 -4 -19 -1 -8 3 -5 6 6 6 11 1 17 -2 13 -5z m165 -33 c-6 -14 -7 -14
-10 2 -2 9 -8 17 -13 17 -6 0 -8 -4 -4 -10 3 -5 -14 -18 -39 -30 -54 -24 -56
-24 -56 -4 0 11 6 13 19 9 11 -3 23 0 27 6 4 8 3 9 -4 5 -7 -4 -12 -4 -12 -1
0 3 19 14 42 25 44 20 62 13 50 -19z m555 33 c-3 -3 -12 -4 -19 -1 -8 3 -5 6
6 6 11 1 17 -2 13 -5z m-667 -14 c0 -5 -2 -10 -4 -10 -3 0 -8 5 -11 10 -3 6
-1 10 4 10 6 0 11 -4 11 -10z m457 -296 c-3 -3 -12 -4 -19 -1 -8 3 -5 6 6 6
11 1 17 -2 13 -5z"/>
<path d="M2328 883 c6 -2 18 -2 25 0 6 3 1 5 -13 5 -14 0 -19 -2 -12 -5z"/>
<path d="M2288 868 c5 -5 16 -8 23 -6 8 3 3 7 -10 11 -17 4 -21 3 -13 -5z"/>
<path d="M2960 1671 c0 -5 7 -11 15 -15 9 -3 15 0 15 9 0 8 -7 15 -15 15 -8 0
-15 -4 -15 -9z"/>
<path d="M2943 1507 c-37 -25 -41 -49 -19 -102 12 -27 21 -35 40 -35 26 0 26
1 26 80 0 44 -3 80 -7 79 -5 0 -23 -10 -40 -22z"/>
<path d="M576 1002 c-6 -10 53 -26 62 -17 8 7 0 13 -29 20 -15 4 -29 2 -33 -3z"/>
<path d="M650 980 c0 -5 7 -10 15 -10 8 0 15 5 15 10 0 6 -7 10 -15 10 -8 0
-15 -4 -15 -10z"/>
<path d="M2974 904 c-7 -3 -9 -23 -6 -53 3 -36 -1 -60 -18 -97 -13 -27 -26
-70 -30 -96 l-6 -48 38 0 38 0 0 150 c0 83 -1 150 -2 149 -2 0 -8 -3 -14 -5z"/>
<path d="M531 581 c-11 -7 -10 -10 5 -14 44 -12 134 -18 134 -9 0 17 -119 36
-139 23z"/>
<path d="M115 540 c-112 -6 -106 -6 79 -8 110 -1 197 0 195 2 -9 8 -163 12
-274 6z"/>
<path d="M428 533 c18 -2 45 -2 60 0 15 2 0 4 -33 4 -33 0 -45 -2 -27 -4z"/>
<path d="M103 413 c59 -2 155 -2 215 0 59 1 10 3 -108 3 -118 0 -167 -2 -107
-3z"/>
<path d="M508 413 c7 -3 16 -2 19 1 4 3 -2 6 -13 5 -11 0 -14 -3 -6 -6z"/>
<path d="M255 250 c-16 -7 -11 -9 22 -9 23 -1 45 4 48 9 8 12 -42 12 -70 0z"/>
<path d="M1418 63 c6 -2 18 -2 25 0 6 3 1 5 -13 5 -14 0 -19 -2 -12 -5z"/>
</g>
</svg>
